<svg version="1.1" id="Layer_1" xmlns="http://www.w3.org/2000/svg" xmlns:xlink="http://www.w3.org/1999/xlink" x="0" y="0" viewBox="0 0 548.15 562.96" xml:space="preserve"><style>.st1{clip-path:url(#SVGID_2_);fill:#fff}</style><defs><path id="SVGID_1_" d="M26.42 28.27h499.01v499.01H26.42z"/></defs><clipPath id="SVGID_2_"><use xlink:href="#SVGID_1_" overflow="visible"/></clipPath><path d="M525.43 277.78c0 137.8-111.71 249.5-249.51 249.5s-249.5-111.7-249.5-249.5 111.7-249.5 249.5-249.5 249.51 111.7 249.51 249.5" clip-path="url(#SVGID_2_)" fill="#ed1c24"/><path class="st1" d="M144.01 249.88c4.2 0 8.88.45 14.32 1.38l.81.14 1.19-8.19-.69-.19c-4.53-1.2-10.66-1.97-15.63-1.97-17.99 0-26.37 7.67-26.37 24.14v23.76c0 16.48 8.38 24.14 26.37 24.14 4.97 0 11.1-.77 15.63-1.97l.69-.19-1.19-8.19-.81.14c-5.43.93-10.11 1.38-14.32 1.38-12.64 0-16.7-3.65-16.7-15.04v-24.31c0-11.37 4.06-15.03 16.7-15.03M204.45 241.06c-17.45 0-27.06 9.02-27.06 25.4v21.26c0 16.37 9.61 25.39 27.06 25.39s27.06-9.02 27.06-25.39v-21.26c0-16.39-9.61-25.4-27.06-25.4m-17.4 25.11c0-11.11 5.53-16.28 17.39-16.28s17.4 5.18 17.4 16.28v21.81c0 11.11-5.53 16.29-17.4 16.29s-17.39-5.18-17.39-16.29v-21.81zM283.92 241.05c-7.6 0-18.98 3.49-26.82 7.09l-.52-5.7h-8.62v69.27h9.67v-54.08c8.6-4.41 20.08-7.46 25.18-7.46 4.66 0 6.56 1.73 6.56 6v55.54h9.67v-54.57c0-10.82-4.95-16.09-15.12-16.09M408.96 241.05c-6.83 0-15.49 1.1-21.06 2.67l-.71.2 1.53 8.33.8-.15c7.33-1.47 14-2.22 19.86-2.22 11.19 0 15.17 3.03 15.17 11.56v12.4h-19.21c-14.68 0-20.67 5.66-20.67 19.56 0 12.88 6.33 19.7 18.31 19.7 7.9 0 15.2-2.01 22.26-6.13l.5 4.75h8.47v-50.27c0-13.73-8.25-20.4-25.25-20.4m15.6 41.62v15.03c-5.91 4.06-13.5 6.57-19.9 6.57-8.88 0-10.31-3.17-10.31-10.72 0-8.53 2.42-10.87 11.29-10.87h18.92zM324.89 286.82c-4.75 3.94-5.78 8.28-5.78 11.31 0 5.28 2.44 11.78 14.07 12.75 6.73.52 8.83.65 13.03.91l5.31.33c7.55.52 10.09 2.81 10.09 9.06 0 3.1-.36 7.48-.36 7.48h9.32s.57-4.86.57-7.9c0-10.59-5.58-15.98-17.56-16.91l-4.53-.35c-5.49-.42-8.08-.62-14.91-1.18-4.75-.43-5.38-2.3-5.38-4.06 0-2.91 1.36-5.25 4.7-8.03 2.8.54 5.54.78 8.81.78 17.77 0 26.79-8.26 26.79-24.56v-.83c0-6.27-1.27-11.35-3.77-15.15l7.8-.64v-7.39h-19.3c-3.17-.94-6.83-1.38-11.51-1.38-18.53 0-26.79 7.57-26.79 24.56v.83c0 9.48 3.16 16.33 9.4 20.37m-.01-21.48c0-11.91 4.23-15.73 17.39-15.73 13.01 0 17.39 3.97 17.39 15.73v1.39c0 11.32-4.87 15.73-17.39 15.73-12.85 0-17.39-4.12-17.39-15.73v-1.39z"/></svg>